<svg width="124" height="36" viewBox="0 0 124 36" fill="none" xmlns="http://www.w3.org/2000/svg">
    <link xmlns="" type="text/css" id="dark-mode" rel="stylesheet" href="" />
    <style xmlns="" type="text/css" id="dark-mode-custom-style" />
    <g clip-path="url(#clip0_2_12)">
        <g filter="url(#filter0_b_2_12)">
            <rect width="124" height="36" rx="5" fill="white" fill-opacity="0.15" />
        </g>
        <path
            d="M14.9513 24V13.8182H17.104V18.0192H21.4741V13.8182H23.6218V24H21.4741V19.794H17.104V24H14.9513ZM27.5344 24.1442C27.0472 24.1442 26.613 24.0597 26.2319 23.8906C25.8507 23.7183 25.5491 23.4647 25.3271 23.13C25.1083 22.7919 24.9989 22.371 24.9989 21.8672C24.9989 21.4429 25.0768 21.0866 25.2326 20.7983C25.3884 20.5099 25.6005 20.2779 25.869 20.1023C26.1374 19.9266 26.4424 19.794 26.7837 19.7045C27.1284 19.6151 27.4897 19.5521 27.8675 19.5156C28.3117 19.4692 28.6696 19.4261 28.9414 19.3864C29.2132 19.3433 29.4104 19.2803 29.533 19.1974C29.6557 19.1146 29.717 18.992 29.717 18.8295V18.7997C29.717 18.4848 29.6175 18.2412 29.4187 18.0689C29.2231 17.8965 28.9447 17.8104 28.5835 17.8104C28.2023 17.8104 27.899 17.8949 27.6737 18.0639C27.4483 18.2296 27.2991 18.4384 27.2262 18.6903L25.2674 18.5312C25.3668 18.0672 25.5624 17.6662 25.854 17.3281C26.1457 16.9867 26.5219 16.7249 26.9826 16.5426C27.4466 16.357 27.9835 16.2642 28.5934 16.2642C29.0176 16.2642 29.4237 16.3139 29.8114 16.4134C30.2025 16.5128 30.5489 16.6669 30.8505 16.8757C31.1554 17.0845 31.3957 17.353 31.5714 17.6811C31.747 18.0059 31.8349 18.3954 31.8349 18.8494V24H29.8263V22.9411H29.7667C29.6441 23.1797 29.48 23.3902 29.2745 23.5724C29.069 23.7514 28.8221 23.8923 28.5337 23.995C28.2454 24.0945 27.9123 24.1442 27.5344 24.1442ZM28.141 22.6825C28.4525 22.6825 28.7276 22.6212 28.9663 22.4986C29.2049 22.3726 29.3922 22.2036 29.5281 21.9915C29.6639 21.7794 29.7319 21.5391 29.7319 21.2706V20.4602C29.6656 20.5033 29.5745 20.5431 29.4585 20.5795C29.3458 20.6127 29.2182 20.6442 29.0756 20.674C28.9331 20.7005 28.7906 20.7254 28.6481 20.7486C28.5056 20.7685 28.3763 20.7867 28.2603 20.8033C28.0117 20.8397 27.7946 20.8977 27.609 20.9773C27.4234 21.0568 27.2792 21.1645 27.1765 21.3004C27.0737 21.433 27.0224 21.5987 27.0224 21.7976C27.0224 22.0859 27.1268 22.3063 27.3356 22.4588C27.5477 22.608 27.8162 22.6825 28.141 22.6825ZM33.478 26.8636V16.3636H35.5661V17.6463H35.6605C35.7533 17.4408 35.8875 17.232 36.0632 17.0199C36.2422 16.8045 36.4742 16.6255 36.7592 16.483C37.0476 16.3371 37.4055 16.2642 37.8331 16.2642C38.3899 16.2642 38.9036 16.41 39.3743 16.7017C39.8449 16.9901 40.2211 17.4259 40.5028 18.0092C40.7846 18.5893 40.9254 19.3168 40.9254 20.1918C40.9254 21.0436 40.7879 21.7628 40.5128 22.3494C40.241 22.9328 39.8698 23.3752 39.3991 23.6768C38.9318 23.9751 38.4081 24.1243 37.8281 24.1243C37.4171 24.1243 37.0675 24.0563 36.7791 23.9205C36.4941 23.7846 36.2604 23.6139 36.0781 23.4084C35.8958 23.1996 35.7566 22.9891 35.6605 22.777H35.5959V26.8636H33.478ZM35.5511 20.1818C35.5511 20.6359 35.6141 21.032 35.7401 21.37C35.866 21.7081 36.0483 21.9716 36.2869 22.1605C36.5256 22.3461 36.8156 22.4389 37.157 22.4389C37.5017 22.4389 37.7933 22.3445 38.032 22.1555C38.2706 21.9633 38.4512 21.6982 38.5739 21.3601C38.6998 21.0187 38.7628 20.6259 38.7628 20.1818C38.7628 19.741 38.7015 19.3532 38.5788 19.0185C38.4562 18.6837 38.2756 18.4219 38.0369 18.233C37.7983 18.044 37.505 17.9496 37.157 17.9496C36.8123 17.9496 36.5206 18.0407 36.282 18.223C36.0466 18.4053 35.866 18.6638 35.7401 18.9986C35.6141 19.3333 35.5511 19.7277 35.5511 20.1818ZM42.3374 26.8636V16.3636H44.4254V17.6463H44.5199C44.6127 17.4408 44.7469 17.232 44.9226 17.0199C45.1016 16.8045 45.3336 16.6255 45.6186 16.483C45.907 16.3371 46.2649 16.2642 46.6925 16.2642C47.2493 16.2642 47.763 16.41 48.2337 16.7017C48.7043 16.9901 49.0805 17.4259 49.3622 18.0092C49.6439 18.5893 49.7848 19.3168 49.7848 20.1918C49.7848 21.0436 49.6473 21.7628 49.3722 22.3494C49.1004 22.9328 48.7292 23.3752 48.2585 23.6768C47.7912 23.9751 47.2675 24.1243 46.6875 24.1243C46.2765 24.1243 45.9268 24.0563 45.6385 23.9205C45.3535 23.7846 45.1198 23.6139 44.9375 23.4084C44.7552 23.1996 44.616 22.9891 44.5199 22.777H44.4553V26.8636H42.3374ZM44.4105 20.1818C44.4105 20.6359 44.4735 21.032 44.5994 21.37C44.7254 21.7081 44.9077 21.9716 45.1463 22.1605C45.3849 22.3461 45.675 22.4389 46.0163 22.4389C46.361 22.4389 46.6527 22.3445 46.8913 22.1555C47.13 21.9633 47.3106 21.6982 47.4332 21.3601C47.5592 21.0187 47.6222 20.6259 47.6222 20.1818C47.6222 19.741 47.5608 19.3532 47.4382 19.0185C47.3156 18.6837 47.1349 18.4219 46.8963 18.233C46.6577 18.044 46.3643 17.9496 46.0163 17.9496C45.6716 17.9496 45.38 18.0407 45.1413 18.223C44.906 18.4053 44.7254 18.6638 44.5994 18.9986C44.4735 19.3333 44.4105 19.7277 44.4105 20.1818ZM51.1967 24V16.3636H53.3146V24H51.1967ZM52.2607 15.3793C51.9458 15.3793 51.6757 15.2749 51.4503 15.0661C51.2282 14.8539 51.1172 14.6004 51.1172 14.3054C51.1172 14.0137 51.2282 13.7635 51.4503 13.5547C51.6757 13.3426 51.9458 13.2365 52.2607 13.2365C52.5755 13.2365 52.844 13.3426 53.0661 13.5547C53.2914 13.7635 53.4041 14.0137 53.4041 14.3054C53.4041 14.6004 53.2914 14.8539 53.0661 15.0661C52.844 15.2749 52.5755 15.3793 52.2607 15.3793ZM57.1291 19.5852V24H55.0112V16.3636H57.0297V17.7109H57.1191C57.2882 17.2668 57.5716 16.9155 57.9693 16.657C58.367 16.3951 58.8493 16.2642 59.416 16.2642C59.9463 16.2642 60.4087 16.3802 60.8031 16.6122C61.1975 16.8442 61.5041 17.1757 61.7228 17.6065C61.9416 18.0341 62.051 18.5445 62.051 19.1378V24H59.9331V19.5156C59.9364 19.0483 59.8171 18.6837 59.5751 18.4219C59.3332 18.1567 59.0001 18.0241 58.5758 18.0241C58.2908 18.0241 58.0389 18.0855 57.8201 18.2081C57.6047 18.3307 57.4357 18.5097 57.313 18.745C57.1937 18.977 57.1324 19.2571 57.1291 19.5852ZM67.2003 24.1491C66.4148 24.1491 65.7386 23.9901 65.1719 23.6719C64.6084 23.3504 64.1742 22.8963 63.8693 22.3097C63.5644 21.7197 63.4119 21.022 63.4119 20.2166C63.4119 19.4311 63.5644 18.7417 63.8693 18.1484C64.1742 17.5552 64.6035 17.0928 65.157 16.7614C65.7138 16.4299 66.3667 16.2642 67.1158 16.2642C67.6196 16.2642 68.0885 16.3454 68.5227 16.5078C68.9602 16.6669 69.3414 16.9072 69.6662 17.2287C69.9943 17.5502 70.2495 17.9545 70.4318 18.4418C70.6141 18.9257 70.7053 19.4924 70.7053 20.142V20.7237H64.2571V19.4112H68.7116C68.7116 19.1063 68.6454 18.8362 68.5128 18.6009C68.3802 18.3655 68.1963 18.1816 67.9609 18.049C67.7289 17.9131 67.4588 17.8452 67.1506 17.8452C66.8291 17.8452 66.544 17.9197 66.2955 18.0689C66.0502 18.2147 65.858 18.4119 65.7188 18.6605C65.5795 18.9058 65.5083 19.1792 65.505 19.4808V20.7287C65.505 21.1065 65.5746 21.433 65.7138 21.7081C65.8563 21.9832 66.0568 22.1953 66.3153 22.3445C66.5739 22.4936 66.8804 22.5682 67.2351 22.5682C67.4704 22.5682 67.6858 22.535 67.8814 22.4688C68.0769 22.4025 68.2443 22.303 68.3835 22.1705C68.5227 22.0379 68.6288 21.8755 68.7017 21.6832L70.6605 21.8125C70.5611 22.2831 70.3572 22.6941 70.049 23.0455C69.7441 23.3935 69.3497 23.6652 68.8658 23.8608C68.3852 24.053 67.83 24.1491 67.2003 24.1491ZM78.4411 18.5412L76.5021 18.6605C76.469 18.4948 76.3977 18.3456 76.2884 18.2131C76.179 18.0772 76.0348 17.9695 75.8558 17.8899C75.6802 17.8071 75.4697 17.7656 75.2244 17.7656C74.8963 17.7656 74.6196 17.8352 74.3942 17.9744C74.1688 18.1103 74.0561 18.2926 74.0561 18.5213C74.0561 18.7036 74.129 18.8577 74.2749 18.9837C74.4207 19.1096 74.6709 19.2107 75.0256 19.2869L76.4077 19.5653C77.1501 19.7178 77.7036 19.9631 78.0682 20.3011C78.4328 20.6392 78.6151 21.0833 78.6151 21.6335C78.6151 22.134 78.4676 22.5732 78.1726 22.951C77.8809 23.3288 77.4799 23.6238 76.9695 23.8359C76.4624 24.0447 75.8774 24.1491 75.2145 24.1491C74.2036 24.1491 73.3982 23.9387 72.7983 23.5178C72.2017 23.0935 71.852 22.5168 71.7493 21.7876L73.8324 21.6783C73.8954 21.9865 74.0478 22.2218 74.2898 22.3842C74.5317 22.5433 74.8416 22.6229 75.2195 22.6229C75.5907 22.6229 75.889 22.5516 76.1143 22.4091C76.343 22.2633 76.459 22.076 76.4624 21.8473C76.459 21.6551 76.3778 21.4976 76.2188 21.375C76.0597 21.2491 75.8144 21.1529 75.483 21.0866L74.1605 20.8232C73.4148 20.674 72.8596 20.4155 72.495 20.0476C72.1338 19.6797 71.9531 19.2107 71.9531 18.6406C71.9531 18.1501 72.0857 17.7275 72.3509 17.3729C72.6193 17.0182 72.9955 16.7448 73.4794 16.5526C73.9666 16.3603 74.5367 16.2642 75.1896 16.2642C76.1541 16.2642 76.9131 16.468 77.4666 16.8757C78.0234 17.2834 78.3482 17.8385 78.4411 18.5412ZM86.3024 18.5412L84.3635 18.6605C84.3303 18.4948 84.2591 18.3456 84.1497 18.2131C84.0403 18.0772 83.8961 17.9695 83.7172 17.8899C83.5415 17.8071 83.331 17.7656 83.0858 17.7656C82.7576 17.7656 82.4809 17.8352 82.2555 17.9744C82.0301 18.1103 81.9174 18.2926 81.9174 18.5213C81.9174 18.7036 81.9904 18.8577 82.1362 18.9837C82.282 19.1096 82.5323 19.2107 82.8869 19.2869L84.269 19.5653C85.0114 19.7178 85.5649 19.9631 85.9295 20.3011C86.2941 20.6392 86.4764 21.0833 86.4764 21.6335C86.4764 22.134 86.3289 22.5732 86.0339 22.951C85.7422 23.3288 85.3412 23.6238 84.8308 23.8359C84.3237 24.0447 83.7387 24.1491 83.0758 24.1491C82.0649 24.1491 81.2595 23.9387 80.6596 23.5178C80.063 23.0935 79.7134 22.5168 79.6106 21.7876L81.6937 21.6783C81.7567 21.9865 81.9092 22.2218 82.1511 22.3842C82.3931 22.5433 82.7029 22.6229 83.0808 22.6229C83.452 22.6229 83.7503 22.5516 83.9757 22.4091C84.2044 22.2633 84.3204 22.076 84.3237 21.8473C84.3204 21.6551 84.2392 21.4976 84.0801 21.375C83.921 21.2491 83.6757 21.1529 83.3443 21.0866L82.0218 20.8232C81.2761 20.674 80.7209 20.4155 80.3564 20.0476C79.9951 19.6797 79.8145 19.2107 79.8145 18.6406C79.8145 18.1501 79.947 17.7275 80.2122 17.3729C80.4806 17.0182 80.8568 16.7448 81.3407 16.5526C81.8279 16.3603 82.398 16.2642 83.051 16.2642C84.0154 16.2642 84.7744 16.468 85.3279 16.8757C85.8848 17.2834 86.2096 17.8385 86.3024 18.5412ZM92.845 24H90.5382L94.0531 13.8182H96.8272L100.337 24H98.0304L95.4799 16.1449H95.4004L92.845 24ZM92.7008 19.9979H98.1497V21.6783H92.7008V19.9979ZM103.641 13.8182V24H101.523V13.8182H103.641ZM109.399 16.3636V17.9545H104.8V16.3636H109.399ZM105.844 14.5341H107.962V21.6534C107.962 21.849 107.992 22.0014 108.052 22.1108C108.112 22.2169 108.194 22.2914 108.3 22.3345C108.41 22.3776 108.536 22.3991 108.678 22.3991C108.778 22.3991 108.877 22.3909 108.977 22.3743C109.076 22.3544 109.152 22.3395 109.205 22.3295L109.538 23.9055C109.432 23.9387 109.283 23.9768 109.091 24.0199C108.899 24.0663 108.665 24.0945 108.39 24.1044C107.879 24.1243 107.432 24.0563 107.048 23.9006C106.666 23.7448 106.37 23.5028 106.158 23.1747C105.946 22.8466 105.841 22.4323 105.844 21.9318V14.5341Z"
            fill="white" />
    </g>
    <defs>
        <filter id="filter0_b_2_12" x="-8" y="-8" width="140" height="52"
            filterUnits="userSpaceOnUse" color-interpolation-filters="sRGB">
            <feFlood flood-opacity="0" result="BackgroundImageFix" />
            <feGaussianBlur in="BackgroundImageFix" stdDeviation="4" />
            <feComposite in2="SourceAlpha" operator="in" result="effect1_backgroundBlur_2_12" />
            <feBlend mode="normal" in="SourceGraphic" in2="effect1_backgroundBlur_2_12"
                result="shape" />
        </filter>
        <clipPath id="clip0_2_12">
            <rect width="124" height="36" fill="white" />
        </clipPath>
    </defs>
</svg>