<svg width="124" height="36" viewBox="0 0 124 36" fill="none" xmlns="http://www.w3.org/2000/svg">
    <link xmlns="" type="text/css" id="dark-mode" rel="stylesheet" href="" />
    <style xmlns="" type="text/css" id="dark-mode-custom-style" />
    <g clip-path="url(#clip0_1_4)">
        <rect width="124" height="36" rx="5" fill="black" />
        <rect width="124" height="36" rx="5" fill="url(#paint0_radial_1_4)" />
        <path
            d="M26.9357 24V13.8182H29.0884V18.0192H33.4585V13.8182H35.6062V24H33.4585V19.794H29.0884V24H26.9357ZM39.5188 24.1442C39.0316 24.1442 38.5974 24.0597 38.2163 23.8906C37.8351 23.7183 37.5335 23.4647 37.3114 23.13C37.0927 22.7919 36.9833 22.371 36.9833 21.8672C36.9833 21.4429 37.0612 21.0866 37.217 20.7983C37.3728 20.5099 37.5849 20.2779 37.8533 20.1023C38.1218 19.9266 38.4267 19.794 38.7681 19.7045C39.1128 19.6151 39.4741 19.5521 39.8519 19.5156C40.296 19.4692 40.654 19.4261 40.9258 19.3864C41.1976 19.3433 41.3948 19.2803 41.5174 19.1974C41.64 19.1146 41.7013 18.992 41.7013 18.8295V18.7997C41.7013 18.4848 41.6019 18.2412 41.4031 18.0689C41.2075 17.8965 40.9291 17.8104 40.5678 17.8104C40.1867 17.8104 39.8834 17.8949 39.658 18.0639C39.4326 18.2296 39.2835 18.4384 39.2106 18.6903L37.2518 18.5312C37.3512 18.0672 37.5468 17.6662 37.8384 17.3281C38.1301 16.9867 38.5063 16.7249 38.967 16.5426C39.431 16.357 39.9679 16.2642 40.5778 16.2642C41.002 16.2642 41.408 16.3139 41.7958 16.4134C42.1869 16.5128 42.5333 16.6669 42.8349 16.8757C43.1398 17.0845 43.3801 17.353 43.5558 17.6811C43.7314 18.0059 43.8192 18.3954 43.8192 18.8494V24H41.8107V22.9411H41.7511C41.6284 23.1797 41.4644 23.3902 41.2589 23.5724C41.0534 23.7514 40.8065 23.8923 40.5181 23.995C40.2298 24.0945 39.8967 24.1442 39.5188 24.1442ZM40.1254 22.6825C40.4369 22.6825 40.712 22.6212 40.9506 22.4986C41.1893 22.3726 41.3765 22.2036 41.5124 21.9915C41.6483 21.7794 41.7163 21.5391 41.7163 21.2706V20.4602C41.65 20.5033 41.5588 20.5431 41.4428 20.5795C41.3301 20.6127 41.2025 20.6442 41.06 20.674C40.9175 20.7005 40.775 20.7254 40.6325 20.7486C40.4899 20.7685 40.3607 20.7867 40.2447 20.8033C39.9961 20.8397 39.779 20.8977 39.5934 20.9773C39.4078 21.0568 39.2636 21.1645 39.1609 21.3004C39.0581 21.433 39.0067 21.5987 39.0067 21.7976C39.0067 22.0859 39.1112 22.3063 39.32 22.4588C39.5321 22.608 39.8005 22.6825 40.1254 22.6825ZM45.4624 26.8636V16.3636H47.5504V17.6463H47.6449C47.7377 17.4408 47.8719 17.232 48.0476 17.0199C48.2266 16.8045 48.4586 16.6255 48.7436 16.483C49.032 16.3371 49.3899 16.2642 49.8175 16.2642C50.3743 16.2642 50.888 16.41 51.3587 16.7017C51.8293 16.9901 52.2055 17.4259 52.4872 18.0092C52.7689 18.5893 52.9098 19.3168 52.9098 20.1918C52.9098 21.0436 52.7723 21.7628 52.4972 22.3494C52.2254 22.9328 51.8542 23.3752 51.3835 23.6768C50.9162 23.9751 50.3925 24.1243 49.8125 24.1243C49.4015 24.1243 49.0518 24.0563 48.7635 23.9205C48.4785 23.7846 48.2448 23.6139 48.0625 23.4084C47.8802 23.1996 47.741 22.9891 47.6449 22.777H47.5803V26.8636H45.4624ZM47.5355 20.1818C47.5355 20.6359 47.5985 21.032 47.7244 21.37C47.8504 21.7081 48.0327 21.9716 48.2713 22.1605C48.5099 22.3461 48.8 22.4389 49.1413 22.4389C49.486 22.4389 49.7777 22.3445 50.0163 22.1555C50.255 21.9633 50.4356 21.6982 50.5582 21.3601C50.6842 21.0187 50.7472 20.6259 50.7472 20.1818C50.7472 19.741 50.6858 19.3532 50.5632 19.0185C50.4406 18.6837 50.2599 18.4219 50.0213 18.233C49.7827 18.044 49.4893 17.9496 49.1413 17.9496C48.7966 17.9496 48.505 18.0407 48.2663 18.223C48.031 18.4053 47.8504 18.6638 47.7244 18.9986C47.5985 19.3333 47.5355 19.7277 47.5355 20.1818ZM54.3217 26.8636V16.3636H56.4098V17.6463H56.5043C56.5971 17.4408 56.7313 17.232 56.907 17.0199C57.0859 16.8045 57.3179 16.6255 57.603 16.483C57.8913 16.3371 58.2493 16.2642 58.6768 16.2642C59.2337 16.2642 59.7474 16.41 60.218 16.7017C60.6887 16.9901 61.0649 17.4259 61.3466 18.0092C61.6283 18.5893 61.7692 19.3168 61.7692 20.1918C61.7692 21.0436 61.6316 21.7628 61.3565 22.3494C61.0848 22.9328 60.7135 23.3752 60.2429 23.6768C59.7756 23.9751 59.2519 24.1243 58.6719 24.1243C58.2609 24.1243 57.9112 24.0563 57.6229 23.9205C57.3378 23.7846 57.1042 23.6139 56.9219 23.4084C56.7396 23.1996 56.6004 22.9891 56.5043 22.777H56.4396V26.8636H54.3217ZM56.3949 20.1818C56.3949 20.6359 56.4579 21.032 56.5838 21.37C56.7098 21.7081 56.892 21.9716 57.1307 22.1605C57.3693 22.3461 57.6593 22.4389 58.0007 22.4389C58.3454 22.4389 58.6371 22.3445 58.8757 22.1555C59.1143 21.9633 59.295 21.6982 59.4176 21.3601C59.5436 21.0187 59.6065 20.6259 59.6065 20.1818C59.6065 19.741 59.5452 19.3532 59.4226 19.0185C59.3 18.6837 59.1193 18.4219 58.8807 18.233C58.642 18.044 58.3487 17.9496 58.0007 17.9496C57.656 17.9496 57.3643 18.0407 57.1257 18.223C56.8904 18.4053 56.7098 18.6638 56.5838 18.9986C56.4579 19.3333 56.3949 19.7277 56.3949 20.1818ZM63.1811 24V16.3636H65.299V24H63.1811ZM64.245 15.3793C63.9302 15.3793 63.66 15.2749 63.4347 15.0661C63.2126 14.8539 63.1016 14.6004 63.1016 14.3054C63.1016 14.0137 63.2126 13.7635 63.4347 13.5547C63.66 13.3426 63.9302 13.2365 64.245 13.2365C64.5599 13.2365 64.8284 13.3426 65.0504 13.5547C65.2758 13.7635 65.3885 14.0137 65.3885 14.3054C65.3885 14.6004 65.2758 14.8539 65.0504 15.0661C64.8284 15.2749 64.5599 15.3793 64.245 15.3793ZM69.1135 19.5852V24H66.9956V16.3636H69.014V17.7109H69.1035C69.2725 17.2668 69.5559 16.9155 69.9537 16.657C70.3514 16.3951 70.8336 16.2642 71.4004 16.2642C71.9307 16.2642 72.3931 16.3802 72.7875 16.6122C73.1819 16.8442 73.4885 17.1757 73.7072 17.6065C73.926 18.0341 74.0353 18.5445 74.0353 19.1378V24H71.9174V19.5156C71.9208 19.0483 71.8014 18.6837 71.5595 18.4219C71.3175 18.1567 70.9844 18.0241 70.5602 18.0241C70.2752 18.0241 70.0233 18.0855 69.8045 18.2081C69.5891 18.3307 69.42 18.5097 69.2974 18.745C69.1781 18.977 69.1168 19.2571 69.1135 19.5852ZM79.1847 24.1491C78.3991 24.1491 77.723 23.9901 77.1562 23.6719C76.5928 23.3504 76.1586 22.8963 75.8537 22.3097C75.5488 21.7197 75.3963 21.022 75.3963 20.2166C75.3963 19.4311 75.5488 18.7417 75.8537 18.1484C76.1586 17.5552 76.5878 17.0928 77.1413 16.7614C77.6982 16.4299 78.3511 16.2642 79.1001 16.2642C79.6039 16.2642 80.0729 16.3454 80.5071 16.5078C80.9446 16.6669 81.3258 16.9072 81.6506 17.2287C81.9787 17.5502 82.2339 17.9545 82.4162 18.4418C82.5985 18.9257 82.6896 19.4924 82.6896 20.142V20.7237H76.2415V19.4112H80.696C80.696 19.1063 80.6297 18.8362 80.4972 18.6009C80.3646 18.3655 80.1806 18.1816 79.9453 18.049C79.7133 17.9131 79.4432 17.8452 79.1349 17.8452C78.8134 17.8452 78.5284 17.9197 78.2798 18.0689C78.0346 18.2147 77.8423 18.4119 77.7031 18.6605C77.5639 18.9058 77.4927 19.1792 77.4893 19.4808V20.7287C77.4893 21.1065 77.5589 21.433 77.6982 21.7081C77.8407 21.9832 78.0412 22.1953 78.2997 22.3445C78.5582 22.4936 78.8648 22.5682 79.2195 22.5682C79.4548 22.5682 79.6702 22.535 79.8658 22.4688C80.0613 22.4025 80.2287 22.303 80.3679 22.1705C80.5071 22.0379 80.6132 21.8755 80.6861 21.6832L82.6449 21.8125C82.5455 22.2831 82.3416 22.6941 82.0334 23.0455C81.7285 23.3935 81.334 23.6652 80.8501 23.8608C80.3696 24.053 79.8144 24.1491 79.1847 24.1491ZM90.4254 18.5412L88.4865 18.6605C88.4534 18.4948 88.3821 18.3456 88.2727 18.2131C88.1634 18.0772 88.0192 17.9695 87.8402 17.8899C87.6645 17.8071 87.4541 17.7656 87.2088 17.7656C86.8807 17.7656 86.6039 17.8352 86.3786 17.9744C86.1532 18.1103 86.0405 18.2926 86.0405 18.5213C86.0405 18.7036 86.1134 18.8577 86.2592 18.9837C86.4051 19.1096 86.6553 19.2107 87.0099 19.2869L88.392 19.5653C89.1345 19.7178 89.688 19.9631 90.0526 20.3011C90.4171 20.6392 90.5994 21.0833 90.5994 21.6335C90.5994 22.134 90.4519 22.5732 90.157 22.951C89.8653 23.3288 89.4643 23.6238 88.9538 23.8359C88.4467 24.0447 87.8617 24.1491 87.1989 24.1491C86.188 24.1491 85.3826 23.9387 84.7827 23.5178C84.1861 23.0935 83.8364 22.5168 83.7337 21.7876L85.8168 21.6783C85.8797 21.9865 86.0322 22.2218 86.2741 22.3842C86.5161 22.5433 86.826 22.6229 87.2038 22.6229C87.575 22.6229 87.8733 22.5516 88.0987 22.4091C88.3274 22.2633 88.4434 22.076 88.4467 21.8473C88.4434 21.6551 88.3622 21.4976 88.2031 21.375C88.044 21.2491 87.7988 21.1529 87.4673 21.0866L86.1449 20.8232C85.3991 20.674 84.844 20.4155 84.4794 20.0476C84.1181 19.6797 83.9375 19.2107 83.9375 18.6406C83.9375 18.1501 84.0701 17.7275 84.3352 17.3729C84.6037 17.0182 84.9799 16.7448 85.4638 16.5526C85.951 16.3603 86.5211 16.2642 87.174 16.2642C88.1385 16.2642 88.8975 16.468 89.451 16.8757C90.0078 17.2834 90.3326 17.8385 90.4254 18.5412ZM98.2868 18.5412L96.3478 18.6605C96.3147 18.4948 96.2434 18.3456 96.1341 18.2131C96.0247 18.0772 95.8805 17.9695 95.7015 17.8899C95.5259 17.8071 95.3154 17.7656 95.0701 17.7656C94.742 17.7656 94.4653 17.8352 94.2399 17.9744C94.0145 18.1103 93.9018 18.2926 93.9018 18.5213C93.9018 18.7036 93.9747 18.8577 94.1206 18.9837C94.2664 19.1096 94.5166 19.2107 94.8713 19.2869L96.2534 19.5653C96.9958 19.7178 97.5493 19.9631 97.9139 20.3011C98.2785 20.6392 98.4608 21.0833 98.4608 21.6335C98.4608 22.134 98.3133 22.5732 98.0183 22.951C97.7266 23.3288 97.3256 23.6238 96.8152 23.8359C96.3081 24.0447 95.7231 24.1491 95.0602 24.1491C94.0493 24.1491 93.2439 23.9387 92.644 23.5178C92.0474 23.0935 91.6977 22.5168 91.595 21.7876L93.6781 21.6783C93.7411 21.9865 93.8935 22.2218 94.1355 22.3842C94.3774 22.5433 94.6873 22.6229 95.0652 22.6229C95.4364 22.6229 95.7347 22.5516 95.96 22.4091C96.1887 22.2633 96.3047 22.076 96.3081 21.8473C96.3047 21.6551 96.2235 21.4976 96.0645 21.375C95.9054 21.2491 95.6601 21.1529 95.3287 21.0866L94.0062 20.8232C93.2605 20.674 92.7053 20.4155 92.3407 20.0476C91.9795 19.6797 91.7988 19.2107 91.7988 18.6406C91.7988 18.1501 91.9314 17.7275 92.1966 17.3729C92.465 17.0182 92.8412 16.7448 93.3251 16.5526C93.8123 16.3603 94.3824 16.2642 95.0353 16.2642C95.9998 16.2642 96.7588 16.468 97.3123 16.8757C97.8691 17.2834 98.194 17.8385 98.2868 18.5412Z"
            fill="white" />
    </g>
    <defs>
        <radialGradient id="paint0_radial_1_4" cx="0" cy="0" r="1" gradientUnits="userSpaceOnUse"
            gradientTransform="translate(124 -3.18223e-05) rotate(163.811) scale(129.12 444.747)">
            <stop stop-color="#8709E8" stop-opacity="0.5" />
            <stop offset="1" stop-color="#0802F5" stop-opacity="0.75" />
        </radialGradient>
        <clipPath id="clip0_1_4">
            <rect width="124" height="36" fill="white" />
        </clipPath>
    </defs>
</svg>