<svg width="440" height="440" viewBox="0 0 440 440" fill="none" xmlns="http://www.w3.org/2000/svg">
<g filter="url(#filter0_d_260_91)">
<circle cx="218" cy="218" r="200" fill="#2256F2"/>
</g>
<path d="M193.771 158.972L136.423 301.516C135.794 303.089 134.929 304.269 133.827 305.056C132.726 305.843 131.467 306.236 130.051 306.236C127.849 306.236 126.197 305.685 125.095 304.584C123.994 303.325 123.365 301.831 123.207 300.1C123.05 299.313 123.129 298.369 123.443 297.268L185.747 144.812C186.534 143.081 187.478 141.901 188.579 141.272C189.838 140.485 191.254 140.092 192.827 140.092C194.401 140.092 195.738 140.564 196.839 141.508C198.098 142.295 199.042 143.396 199.671 144.812L261.739 296.56C262.054 297.504 262.211 298.448 262.211 299.392C262.211 301.595 261.503 303.325 260.087 304.584C258.671 305.685 257.019 306.236 255.131 306.236C253.558 306.236 252.142 305.843 250.883 305.056C249.782 304.112 248.917 302.932 248.287 301.516L189.523 158.028L193.771 158.972ZM150.111 258.328L156.011 244.404H229.171L232.003 258.328H150.111ZM301.496 298.92C301.496 300.808 300.788 302.46 299.372 303.876C297.956 305.292 296.304 306 294.416 306C292.371 306 290.64 305.292 289.224 303.876C287.965 302.46 287.336 300.808 287.336 298.92V190.36C287.336 188.472 287.965 186.82 289.224 185.404C290.64 183.988 292.371 183.28 294.416 183.28C296.461 183.28 298.113 183.988 299.372 185.404C300.788 186.82 301.496 188.472 301.496 190.36V298.92ZM294.416 167.468C291.112 167.468 288.595 166.76 286.864 165.344C285.291 163.771 284.504 161.568 284.504 158.736V156.376C284.504 153.544 285.369 151.42 287.1 150.004C288.988 148.431 291.505 147.644 294.652 147.644C297.641 147.644 299.923 148.431 301.496 150.004C303.227 151.42 304.092 153.544 304.092 156.376V158.736C304.092 161.568 303.227 163.771 301.496 165.344C299.923 166.76 297.563 167.468 294.416 167.468Z" fill="white"/>
<defs>
<filter id="filter0_d_260_91" x="0" y="0" width="440" height="440" filterUnits="userSpaceOnUse" color-interpolation-filters="sRGB">
<feFlood flood-opacity="0" result="BackgroundImageFix"/>
<feColorMatrix in="SourceAlpha" type="matrix" values="0 0 0 0 0 0 0 0 0 0 0 0 0 0 0 0 0 0 127 0" result="hardAlpha"/>
<feOffset dx="2" dy="2"/>
<feGaussianBlur stdDeviation="10"/>
<feComposite in2="hardAlpha" operator="out"/>
<feColorMatrix type="matrix" values="0 0 0 0 0 0 0 0 0 0 0 0 0 0 0 0 0 0 0.25 0"/>
<feBlend mode="normal" in2="BackgroundImageFix" result="effect1_dropShadow_260_91"/>
<feBlend mode="normal" in="SourceGraphic" in2="effect1_dropShadow_260_91" result="shape"/>
</filter>
</defs>
</svg>
